<mxfile host="app.diagrams.net" agent="Mozilla/5.0 (Windows NT 10.0; Win64; x64) AppleWebKit/537.36 (KHTML, like Gecko) Chrome/133.0.0.0 Safari/537.36" version="26.0.14">
  <diagram id="C5RBs43oDa-KdzZeNtuy" name="Page-1">
    <mxGraphModel dx="2140" dy="696" grid="1" gridSize="10" guides="1" tooltips="1" connect="1" arrows="1" fold="1" page="1" pageScale="1" pageWidth="827" pageHeight="1169" math="0" shadow="0">
      <root>
        <mxCell id="WIyWlLk6GJQsqaUBKTNV-0" />
        <mxCell id="WIyWlLk6GJQsqaUBKTNV-1" parent="WIyWlLk6GJQsqaUBKTNV-0" />
        <mxCell id="w3oDjt0MCiLCRGM7U3Oa-9" style="edgeStyle=orthogonalEdgeStyle;rounded=0;orthogonalLoop=1;jettySize=auto;html=1;exitX=0.5;exitY=1;exitDx=0;exitDy=0;" parent="WIyWlLk6GJQsqaUBKTNV-1" edge="1">
          <mxGeometry relative="1" as="geometry">
            <mxPoint x="357.5" y="510" as="sourcePoint" />
            <mxPoint x="357.5" y="510" as="targetPoint" />
          </mxGeometry>
        </mxCell>
        <mxCell id="w3oDjt0MCiLCRGM7U3Oa-10" style="edgeStyle=orthogonalEdgeStyle;rounded=0;orthogonalLoop=1;jettySize=auto;html=1;exitX=0.5;exitY=1;exitDx=0;exitDy=0;" parent="WIyWlLk6GJQsqaUBKTNV-1" edge="1">
          <mxGeometry relative="1" as="geometry">
            <mxPoint x="357.5" y="510" as="sourcePoint" />
            <mxPoint x="357.5" y="510" as="targetPoint" />
          </mxGeometry>
        </mxCell>
        <mxCell id="fThtwUrrI2s_Vn2d46SL-195" style="edgeStyle=orthogonalEdgeStyle;rounded=0;orthogonalLoop=1;jettySize=auto;html=1;entryX=0.5;entryY=0;entryDx=0;entryDy=0;" parent="WIyWlLk6GJQsqaUBKTNV-1" source="fThtwUrrI2s_Vn2d46SL-78" target="fThtwUrrI2s_Vn2d46SL-127" edge="1">
          <mxGeometry relative="1" as="geometry" />
        </mxCell>
        <mxCell id="fThtwUrrI2s_Vn2d46SL-78" value="Initialize the experiment" style="shape=table;startSize=30;container=1;collapsible=0;childLayout=tableLayout;" parent="WIyWlLk6GJQsqaUBKTNV-1" vertex="1">
          <mxGeometry x="-92.5" y="110" width="900.0000000000005" height="526" as="geometry" />
        </mxCell>
        <mxCell id="fThtwUrrI2s_Vn2d46SL-79" value="" style="shape=tableRow;horizontal=0;startSize=0;swimlaneHead=0;swimlaneBody=0;strokeColor=inherit;top=0;left=0;bottom=0;right=0;collapsible=0;dropTarget=0;fillColor=none;points=[[0,0.5],[1,0.5]];portConstraint=eastwest;" parent="fThtwUrrI2s_Vn2d46SL-78" vertex="1">
          <mxGeometry y="30" width="900.0000000000005" height="22" as="geometry" />
        </mxCell>
        <mxCell id="fThtwUrrI2s_Vn2d46SL-80" value="Devices" style="shape=partialRectangle;html=1;whiteSpace=wrap;connectable=0;strokeColor=inherit;overflow=hidden;fillColor=none;top=0;left=0;bottom=0;right=0;pointerEvents=1;" parent="fThtwUrrI2s_Vn2d46SL-79" vertex="1">
          <mxGeometry width="323" height="22" as="geometry">
            <mxRectangle width="323" height="22" as="alternateBounds" />
          </mxGeometry>
        </mxCell>
        <mxCell id="fThtwUrrI2s_Vn2d46SL-156" value="Purpose" style="shape=partialRectangle;html=1;whiteSpace=wrap;connectable=0;strokeColor=inherit;overflow=hidden;fillColor=none;top=0;left=0;bottom=0;right=0;pointerEvents=1;" parent="fThtwUrrI2s_Vn2d46SL-79" vertex="1">
          <mxGeometry x="323" width="290" height="22" as="geometry">
            <mxRectangle width="290" height="22" as="alternateBounds" />
          </mxGeometry>
        </mxCell>
        <mxCell id="fThtwUrrI2s_Vn2d46SL-81" value="Interfaces" style="shape=partialRectangle;html=1;whiteSpace=wrap;connectable=0;strokeColor=inherit;overflow=hidden;fillColor=none;top=0;left=0;bottom=0;right=0;pointerEvents=1;" parent="fThtwUrrI2s_Vn2d46SL-79" vertex="1">
          <mxGeometry x="613" width="140" height="22" as="geometry">
            <mxRectangle width="140" height="22" as="alternateBounds" />
          </mxGeometry>
        </mxCell>
        <mxCell id="fThtwUrrI2s_Vn2d46SL-82" value="Output" style="shape=partialRectangle;html=1;whiteSpace=wrap;connectable=0;strokeColor=inherit;overflow=hidden;fillColor=none;top=0;left=0;bottom=0;right=0;pointerEvents=1;" parent="fThtwUrrI2s_Vn2d46SL-79" vertex="1">
          <mxGeometry x="753" width="147" height="22" as="geometry">
            <mxRectangle width="147" height="22" as="alternateBounds" />
          </mxGeometry>
        </mxCell>
        <mxCell id="fThtwUrrI2s_Vn2d46SL-83" value="" style="shape=tableRow;horizontal=0;startSize=0;swimlaneHead=0;swimlaneBody=0;strokeColor=inherit;top=0;left=0;bottom=0;right=0;collapsible=0;dropTarget=0;fillColor=none;points=[[0,0.5],[1,0.5]];portConstraint=eastwest;" parent="fThtwUrrI2s_Vn2d46SL-78" vertex="1">
          <mxGeometry y="52" width="900.0000000000005" height="43" as="geometry" />
        </mxCell>
        <mxCell id="fThtwUrrI2s_Vn2d46SL-84" value="Berkeley Nucleonics Model 575&amp;nbsp;" style="shape=partialRectangle;html=1;whiteSpace=wrap;connectable=0;strokeColor=inherit;overflow=hidden;fillColor=none;top=0;left=0;bottom=0;right=0;pointerEvents=1;" parent="fThtwUrrI2s_Vn2d46SL-83" vertex="1">
          <mxGeometry width="323" height="43" as="geometry">
            <mxRectangle width="323" height="43" as="alternateBounds" />
          </mxGeometry>
        </mxCell>
        <mxCell id="fThtwUrrI2s_Vn2d46SL-157" value="&lt;span style=&quot;text-align: left;&quot;&gt;Pulse/ Delay generator&lt;/span&gt;" style="shape=partialRectangle;html=1;whiteSpace=wrap;connectable=0;strokeColor=inherit;overflow=hidden;fillColor=none;top=0;left=0;bottom=0;right=0;pointerEvents=1;" parent="fThtwUrrI2s_Vn2d46SL-83" vertex="1">
          <mxGeometry x="323" width="290" height="43" as="geometry">
            <mxRectangle width="290" height="43" as="alternateBounds" />
          </mxGeometry>
        </mxCell>
        <mxCell id="fThtwUrrI2s_Vn2d46SL-85" value="USB-B / RS232" style="shape=partialRectangle;html=1;whiteSpace=wrap;connectable=0;strokeColor=inherit;overflow=hidden;fillColor=none;top=0;left=0;bottom=0;right=0;pointerEvents=1;" parent="fThtwUrrI2s_Vn2d46SL-83" vertex="1">
          <mxGeometry x="613" width="140" height="43" as="geometry">
            <mxRectangle width="140" height="43" as="alternateBounds" />
          </mxGeometry>
        </mxCell>
        <mxCell id="fThtwUrrI2s_Vn2d46SL-86" value="BNC" style="shape=partialRectangle;html=1;whiteSpace=wrap;connectable=0;strokeColor=inherit;overflow=hidden;fillColor=none;top=0;left=0;bottom=0;right=0;pointerEvents=1;" parent="fThtwUrrI2s_Vn2d46SL-83" vertex="1">
          <mxGeometry x="753" width="147" height="43" as="geometry">
            <mxRectangle width="147" height="43" as="alternateBounds" />
          </mxGeometry>
        </mxCell>
        <mxCell id="fThtwUrrI2s_Vn2d46SL-87" value="" style="shape=tableRow;horizontal=0;startSize=0;swimlaneHead=0;swimlaneBody=0;strokeColor=inherit;top=0;left=0;bottom=0;right=0;collapsible=0;dropTarget=0;fillColor=none;points=[[0,0.5],[1,0.5]];portConstraint=eastwest;" parent="fThtwUrrI2s_Vn2d46SL-78" vertex="1">
          <mxGeometry y="95" width="900.0000000000005" height="43" as="geometry" />
        </mxCell>
        <mxCell id="fThtwUrrI2s_Vn2d46SL-88" value="&lt;div style=&quot;text-align: left;&quot;&gt;Stahl HS 1000&lt;/div&gt;" style="shape=partialRectangle;html=1;whiteSpace=wrap;connectable=0;strokeColor=inherit;overflow=hidden;fillColor=none;top=0;left=0;bottom=0;right=0;pointerEvents=1;" parent="fThtwUrrI2s_Vn2d46SL-87" vertex="1">
          <mxGeometry width="323" height="43" as="geometry">
            <mxRectangle width="323" height="43" as="alternateBounds" />
          </mxGeometry>
        </mxCell>
        <mxCell id="fThtwUrrI2s_Vn2d46SL-158" value="&lt;span style=&quot;text-align: left;&quot;&gt;Switch for the BEHLKE switch&lt;/span&gt;" style="shape=partialRectangle;html=1;whiteSpace=wrap;connectable=0;strokeColor=inherit;overflow=hidden;fillColor=none;top=0;left=0;bottom=0;right=0;pointerEvents=1;" parent="fThtwUrrI2s_Vn2d46SL-87" vertex="1">
          <mxGeometry x="323" width="290" height="43" as="geometry">
            <mxRectangle width="290" height="43" as="alternateBounds" />
          </mxGeometry>
        </mxCell>
        <mxCell id="fThtwUrrI2s_Vn2d46SL-89" value="Manual / BNC" style="shape=partialRectangle;html=1;whiteSpace=wrap;connectable=0;strokeColor=inherit;overflow=hidden;fillColor=none;top=0;left=0;bottom=0;right=0;pointerEvents=1;" parent="fThtwUrrI2s_Vn2d46SL-87" vertex="1">
          <mxGeometry x="613" width="140" height="43" as="geometry">
            <mxRectangle width="140" height="43" as="alternateBounds" />
          </mxGeometry>
        </mxCell>
        <mxCell id="fThtwUrrI2s_Vn2d46SL-90" value="BNC" style="shape=partialRectangle;html=1;whiteSpace=wrap;connectable=0;strokeColor=inherit;overflow=hidden;fillColor=none;top=0;left=0;bottom=0;right=0;pointerEvents=1;" parent="fThtwUrrI2s_Vn2d46SL-87" vertex="1">
          <mxGeometry x="753" width="147" height="43" as="geometry">
            <mxRectangle width="147" height="43" as="alternateBounds" />
          </mxGeometry>
        </mxCell>
        <mxCell id="fThtwUrrI2s_Vn2d46SL-91" value="" style="shape=tableRow;horizontal=0;startSize=0;swimlaneHead=0;swimlaneBody=0;strokeColor=inherit;top=0;left=0;bottom=0;right=0;collapsible=0;dropTarget=0;fillColor=none;points=[[0,0.5],[1,0.5]];portConstraint=eastwest;" parent="fThtwUrrI2s_Vn2d46SL-78" vertex="1">
          <mxGeometry y="138" width="900.0000000000005" height="43" as="geometry" />
        </mxCell>
        <mxCell id="fThtwUrrI2s_Vn2d46SL-92" value="CAEN R8034" style="shape=partialRectangle;html=1;whiteSpace=wrap;connectable=0;strokeColor=inherit;overflow=hidden;fillColor=none;top=0;left=0;bottom=0;right=0;pointerEvents=1;" parent="fThtwUrrI2s_Vn2d46SL-91" vertex="1">
          <mxGeometry width="323" height="43" as="geometry">
            <mxRectangle width="323" height="43" as="alternateBounds" />
          </mxGeometry>
        </mxCell>
        <mxCell id="fThtwUrrI2s_Vn2d46SL-159" value="&lt;span style=&quot;text-align: left;&quot;&gt;Power supply for sickler lens&lt;/span&gt;" style="shape=partialRectangle;html=1;whiteSpace=wrap;connectable=0;strokeColor=inherit;overflow=hidden;fillColor=none;top=0;left=0;bottom=0;right=0;pointerEvents=1;" parent="fThtwUrrI2s_Vn2d46SL-91" vertex="1">
          <mxGeometry x="323" width="290" height="43" as="geometry">
            <mxRectangle width="290" height="43" as="alternateBounds" />
          </mxGeometry>
        </mxCell>
        <mxCell id="fThtwUrrI2s_Vn2d46SL-93" value="USB-B / ethernet" style="shape=partialRectangle;html=1;whiteSpace=wrap;connectable=0;strokeColor=inherit;overflow=hidden;fillColor=none;top=0;left=0;bottom=0;right=0;pointerEvents=1;" parent="fThtwUrrI2s_Vn2d46SL-91" vertex="1">
          <mxGeometry x="613" width="140" height="43" as="geometry">
            <mxRectangle width="140" height="43" as="alternateBounds" />
          </mxGeometry>
        </mxCell>
        <mxCell id="fThtwUrrI2s_Vn2d46SL-94" value="BNC" style="shape=partialRectangle;html=1;whiteSpace=wrap;connectable=0;strokeColor=inherit;overflow=hidden;fillColor=none;top=0;left=0;bottom=0;right=0;pointerEvents=1;" parent="fThtwUrrI2s_Vn2d46SL-91" vertex="1">
          <mxGeometry x="753" width="147" height="43" as="geometry">
            <mxRectangle width="147" height="43" as="alternateBounds" />
          </mxGeometry>
        </mxCell>
        <mxCell id="fThtwUrrI2s_Vn2d46SL-95" value="" style="shape=tableRow;horizontal=0;startSize=0;swimlaneHead=0;swimlaneBody=0;strokeColor=inherit;top=0;left=0;bottom=0;right=0;collapsible=0;dropTarget=0;fillColor=none;points=[[0,0.5],[1,0.5]];portConstraint=eastwest;" parent="fThtwUrrI2s_Vn2d46SL-78" vertex="1">
          <mxGeometry y="181" width="900.0000000000005" height="43" as="geometry" />
        </mxCell>
        <mxCell id="fThtwUrrI2s_Vn2d46SL-96" value="Stahl HV‐250‐8" style="shape=partialRectangle;html=1;whiteSpace=wrap;connectable=0;strokeColor=inherit;overflow=hidden;fillColor=none;top=0;left=0;bottom=0;right=0;pointerEvents=1;" parent="fThtwUrrI2s_Vn2d46SL-95" vertex="1">
          <mxGeometry width="323" height="43" as="geometry">
            <mxRectangle width="323" height="43" as="alternateBounds" />
          </mxGeometry>
        </mxCell>
        <mxCell id="fThtwUrrI2s_Vn2d46SL-160" value="&lt;span style=&quot;text-align: left;&quot;&gt;Voltage source for Creation Trap (CT)&lt;/span&gt;" style="shape=partialRectangle;html=1;whiteSpace=wrap;connectable=0;strokeColor=inherit;overflow=hidden;fillColor=none;top=0;left=0;bottom=0;right=0;pointerEvents=1;" parent="fThtwUrrI2s_Vn2d46SL-95" vertex="1">
          <mxGeometry x="323" width="290" height="43" as="geometry">
            <mxRectangle width="290" height="43" as="alternateBounds" />
          </mxGeometry>
        </mxCell>
        <mxCell id="fThtwUrrI2s_Vn2d46SL-97" value="USB-B" style="shape=partialRectangle;html=1;whiteSpace=wrap;connectable=0;strokeColor=inherit;overflow=hidden;fillColor=none;top=0;left=0;bottom=0;right=0;pointerEvents=1;" parent="fThtwUrrI2s_Vn2d46SL-95" vertex="1">
          <mxGeometry x="613" width="140" height="43" as="geometry">
            <mxRectangle width="140" height="43" as="alternateBounds" />
          </mxGeometry>
        </mxCell>
        <mxCell id="fThtwUrrI2s_Vn2d46SL-98" value="BNC" style="shape=partialRectangle;html=1;whiteSpace=wrap;connectable=0;strokeColor=inherit;overflow=hidden;fillColor=none;top=0;left=0;bottom=0;right=0;pointerEvents=1;" parent="fThtwUrrI2s_Vn2d46SL-95" vertex="1">
          <mxGeometry x="753" width="147" height="43" as="geometry">
            <mxRectangle width="147" height="43" as="alternateBounds" />
          </mxGeometry>
        </mxCell>
        <mxCell id="fThtwUrrI2s_Vn2d46SL-99" value="" style="shape=tableRow;horizontal=0;startSize=0;swimlaneHead=0;swimlaneBody=0;strokeColor=inherit;top=0;left=0;bottom=0;right=0;collapsible=0;dropTarget=0;fillColor=none;points=[[0,0.5],[1,0.5]];portConstraint=eastwest;" parent="fThtwUrrI2s_Vn2d46SL-78" vertex="1">
          <mxGeometry y="224" width="900.0000000000005" height="43" as="geometry" />
        </mxCell>
        <mxCell id="fThtwUrrI2s_Vn2d46SL-100" value="Stahl BS-1-10 Cryo" style="shape=partialRectangle;html=1;whiteSpace=wrap;connectable=0;strokeColor=inherit;overflow=hidden;fillColor=none;top=0;left=0;bottom=0;right=0;pointerEvents=1;" parent="fThtwUrrI2s_Vn2d46SL-99" vertex="1">
          <mxGeometry width="323" height="43" as="geometry">
            <mxRectangle width="323" height="43" as="alternateBounds" />
          </mxGeometry>
        </mxCell>
        <mxCell id="fThtwUrrI2s_Vn2d46SL-161" value="&lt;span style=&quot;text-align: left;&quot;&gt;Biasing for amplifiers&lt;/span&gt;" style="shape=partialRectangle;html=1;whiteSpace=wrap;connectable=0;strokeColor=inherit;overflow=hidden;fillColor=none;top=0;left=0;bottom=0;right=0;pointerEvents=1;" parent="fThtwUrrI2s_Vn2d46SL-99" vertex="1">
          <mxGeometry x="323" width="290" height="43" as="geometry">
            <mxRectangle width="290" height="43" as="alternateBounds" />
          </mxGeometry>
        </mxCell>
        <mxCell id="fThtwUrrI2s_Vn2d46SL-101" value="USB-B" style="shape=partialRectangle;html=1;whiteSpace=wrap;connectable=0;strokeColor=inherit;overflow=hidden;fillColor=none;top=0;left=0;bottom=0;right=0;pointerEvents=1;" parent="fThtwUrrI2s_Vn2d46SL-99" vertex="1">
          <mxGeometry x="613" width="140" height="43" as="geometry">
            <mxRectangle width="140" height="43" as="alternateBounds" />
          </mxGeometry>
        </mxCell>
        <mxCell id="fThtwUrrI2s_Vn2d46SL-102" value="BNC / D-sub" style="shape=partialRectangle;html=1;whiteSpace=wrap;connectable=0;strokeColor=inherit;overflow=hidden;fillColor=none;top=0;left=0;bottom=0;right=0;pointerEvents=1;" parent="fThtwUrrI2s_Vn2d46SL-99" vertex="1">
          <mxGeometry x="753" width="147" height="43" as="geometry">
            <mxRectangle width="147" height="43" as="alternateBounds" />
          </mxGeometry>
        </mxCell>
        <mxCell id="fThtwUrrI2s_Vn2d46SL-103" value="" style="shape=tableRow;horizontal=0;startSize=0;swimlaneHead=0;swimlaneBody=0;strokeColor=inherit;top=0;left=0;bottom=0;right=0;collapsible=0;dropTarget=0;fillColor=none;points=[[0,0.5],[1,0.5]];portConstraint=eastwest;" parent="fThtwUrrI2s_Vn2d46SL-78" vertex="1">
          <mxGeometry y="267" width="900.0000000000005" height="44" as="geometry" />
        </mxCell>
        <mxCell id="fThtwUrrI2s_Vn2d46SL-104" value="Stahl HV-200" style="shape=partialRectangle;html=1;whiteSpace=wrap;connectable=0;strokeColor=inherit;overflow=hidden;fillColor=none;top=0;left=0;bottom=0;right=0;pointerEvents=1;" parent="fThtwUrrI2s_Vn2d46SL-103" vertex="1">
          <mxGeometry width="323" height="44" as="geometry">
            <mxRectangle width="323" height="44" as="alternateBounds" />
          </mxGeometry>
        </mxCell>
        <mxCell id="fThtwUrrI2s_Vn2d46SL-162" value="&lt;span style=&quot;text-align: left;&quot;&gt;Voltage source for Spectroscopy Trap (ST)&lt;/span&gt;" style="shape=partialRectangle;html=1;whiteSpace=wrap;connectable=0;strokeColor=inherit;overflow=hidden;fillColor=none;top=0;left=0;bottom=0;right=0;pointerEvents=1;" parent="fThtwUrrI2s_Vn2d46SL-103" vertex="1">
          <mxGeometry x="323" width="290" height="44" as="geometry">
            <mxRectangle width="290" height="44" as="alternateBounds" />
          </mxGeometry>
        </mxCell>
        <mxCell id="fThtwUrrI2s_Vn2d46SL-105" value="USB-B" style="shape=partialRectangle;html=1;whiteSpace=wrap;connectable=0;strokeColor=inherit;overflow=hidden;fillColor=none;top=0;left=0;bottom=0;right=0;pointerEvents=1;" parent="fThtwUrrI2s_Vn2d46SL-103" vertex="1">
          <mxGeometry x="613" width="140" height="44" as="geometry">
            <mxRectangle width="140" height="44" as="alternateBounds" />
          </mxGeometry>
        </mxCell>
        <mxCell id="fThtwUrrI2s_Vn2d46SL-106" value="BNC" style="shape=partialRectangle;html=1;whiteSpace=wrap;connectable=0;strokeColor=inherit;overflow=hidden;fillColor=none;top=0;left=0;bottom=0;right=0;pointerEvents=1;" parent="fThtwUrrI2s_Vn2d46SL-103" vertex="1">
          <mxGeometry x="753" width="147" height="44" as="geometry">
            <mxRectangle width="147" height="44" as="alternateBounds" />
          </mxGeometry>
        </mxCell>
        <mxCell id="fThtwUrrI2s_Vn2d46SL-107" value="" style="shape=tableRow;horizontal=0;startSize=0;swimlaneHead=0;swimlaneBody=0;strokeColor=inherit;top=0;left=0;bottom=0;right=0;collapsible=0;dropTarget=0;fillColor=none;points=[[0,0.5],[1,0.5]];portConstraint=eastwest;" parent="fThtwUrrI2s_Vn2d46SL-78" vertex="1">
          <mxGeometry y="311" width="900.0000000000005" height="43" as="geometry" />
        </mxCell>
        <mxCell id="fThtwUrrI2s_Vn2d46SL-108" value="Stahl BS 1-8 and BS 34-1" style="shape=partialRectangle;html=1;whiteSpace=wrap;connectable=0;strokeColor=inherit;overflow=hidden;fillColor=none;top=0;left=0;bottom=0;right=0;pointerEvents=1;" parent="fThtwUrrI2s_Vn2d46SL-107" vertex="1">
          <mxGeometry width="323" height="43" as="geometry">
            <mxRectangle width="323" height="43" as="alternateBounds" />
          </mxGeometry>
        </mxCell>
        <mxCell id="fThtwUrrI2s_Vn2d46SL-163" value="&lt;span style=&quot;text-align: left;&quot;&gt;Precision multichannel voltage source for ST&lt;/span&gt;" style="shape=partialRectangle;html=1;whiteSpace=wrap;connectable=0;strokeColor=inherit;overflow=hidden;fillColor=none;top=0;left=0;bottom=0;right=0;pointerEvents=1;" parent="fThtwUrrI2s_Vn2d46SL-107" vertex="1">
          <mxGeometry x="323" width="290" height="43" as="geometry">
            <mxRectangle width="290" height="43" as="alternateBounds" />
          </mxGeometry>
        </mxCell>
        <mxCell id="fThtwUrrI2s_Vn2d46SL-109" value="USB-B" style="shape=partialRectangle;html=1;whiteSpace=wrap;connectable=0;strokeColor=inherit;overflow=hidden;fillColor=none;top=0;left=0;bottom=0;right=0;pointerEvents=1;" parent="fThtwUrrI2s_Vn2d46SL-107" vertex="1">
          <mxGeometry x="613" width="140" height="43" as="geometry">
            <mxRectangle width="140" height="43" as="alternateBounds" />
          </mxGeometry>
        </mxCell>
        <mxCell id="fThtwUrrI2s_Vn2d46SL-110" value="BNC / RS232" style="shape=partialRectangle;html=1;whiteSpace=wrap;connectable=0;strokeColor=inherit;overflow=hidden;fillColor=none;top=0;left=0;bottom=0;right=0;pointerEvents=1;" parent="fThtwUrrI2s_Vn2d46SL-107" vertex="1">
          <mxGeometry x="753" width="147" height="43" as="geometry">
            <mxRectangle width="147" height="43" as="alternateBounds" />
          </mxGeometry>
        </mxCell>
        <mxCell id="fThtwUrrI2s_Vn2d46SL-111" value="" style="shape=tableRow;horizontal=0;startSize=0;swimlaneHead=0;swimlaneBody=0;strokeColor=inherit;top=0;left=0;bottom=0;right=0;collapsible=0;dropTarget=0;fillColor=none;points=[[0,0.5],[1,0.5]];portConstraint=eastwest;" parent="fThtwUrrI2s_Vn2d46SL-78" vertex="1">
          <mxGeometry y="354" width="900.0000000000005" height="43" as="geometry" />
        </mxCell>
        <mxCell id="fThtwUrrI2s_Vn2d46SL-112" value="UM" style="shape=partialRectangle;html=1;whiteSpace=wrap;connectable=0;strokeColor=inherit;overflow=hidden;fillColor=none;top=0;left=0;bottom=0;right=0;pointerEvents=1;" parent="fThtwUrrI2s_Vn2d46SL-111" vertex="1">
          <mxGeometry width="323" height="43" as="geometry">
            <mxRectangle width="323" height="43" as="alternateBounds" />
          </mxGeometry>
        </mxCell>
        <mxCell id="fThtwUrrI2s_Vn2d46SL-164" value="&lt;span style=&quot;text-align: left;&quot;&gt;Ultra high precision voltage source (UM) for ST&lt;/span&gt;" style="shape=partialRectangle;html=1;whiteSpace=wrap;connectable=0;strokeColor=inherit;overflow=hidden;fillColor=none;top=0;left=0;bottom=0;right=0;pointerEvents=1;" parent="fThtwUrrI2s_Vn2d46SL-111" vertex="1">
          <mxGeometry x="323" width="290" height="43" as="geometry">
            <mxRectangle width="290" height="43" as="alternateBounds" />
          </mxGeometry>
        </mxCell>
        <mxCell id="fThtwUrrI2s_Vn2d46SL-113" value="USB-B" style="shape=partialRectangle;html=1;whiteSpace=wrap;connectable=0;strokeColor=inherit;overflow=hidden;fillColor=none;top=0;left=0;bottom=0;right=0;pointerEvents=1;" parent="fThtwUrrI2s_Vn2d46SL-111" vertex="1">
          <mxGeometry x="613" width="140" height="43" as="geometry">
            <mxRectangle width="140" height="43" as="alternateBounds" />
          </mxGeometry>
        </mxCell>
        <mxCell id="fThtwUrrI2s_Vn2d46SL-114" value="D-sub (DC-37) / banana socket" style="shape=partialRectangle;html=1;whiteSpace=wrap;connectable=0;strokeColor=inherit;overflow=hidden;fillColor=none;top=0;left=0;bottom=0;right=0;pointerEvents=1;" parent="fThtwUrrI2s_Vn2d46SL-111" vertex="1">
          <mxGeometry x="753" width="147" height="43" as="geometry">
            <mxRectangle width="147" height="43" as="alternateBounds" />
          </mxGeometry>
        </mxCell>
        <mxCell id="fThtwUrrI2s_Vn2d46SL-115" value="" style="shape=tableRow;horizontal=0;startSize=0;swimlaneHead=0;swimlaneBody=0;strokeColor=inherit;top=0;left=0;bottom=0;right=0;collapsible=0;dropTarget=0;fillColor=none;points=[[0,0.5],[1,0.5]];portConstraint=eastwest;" parent="fThtwUrrI2s_Vn2d46SL-78" vertex="1">
          <mxGeometry y="397" width="900.0000000000005" height="43" as="geometry" />
        </mxCell>
        <mxCell id="fThtwUrrI2s_Vn2d46SL-116" value="Stahl HV 500" style="shape=partialRectangle;html=1;whiteSpace=wrap;connectable=0;strokeColor=inherit;overflow=hidden;fillColor=none;top=0;left=0;bottom=0;right=0;pointerEvents=1;" parent="fThtwUrrI2s_Vn2d46SL-115" vertex="1">
          <mxGeometry width="323" height="43" as="geometry">
            <mxRectangle width="323" height="43" as="alternateBounds" />
          </mxGeometry>
        </mxCell>
        <mxCell id="fThtwUrrI2s_Vn2d46SL-165" value="&lt;span style=&quot;text-align: left;&quot;&gt;Power supply for SWIFT&lt;/span&gt;" style="shape=partialRectangle;html=1;whiteSpace=wrap;connectable=0;strokeColor=inherit;overflow=hidden;fillColor=none;top=0;left=0;bottom=0;right=0;pointerEvents=1;" parent="fThtwUrrI2s_Vn2d46SL-115" vertex="1">
          <mxGeometry x="323" width="290" height="43" as="geometry">
            <mxRectangle width="290" height="43" as="alternateBounds" />
          </mxGeometry>
        </mxCell>
        <mxCell id="fThtwUrrI2s_Vn2d46SL-117" value="USB-B" style="shape=partialRectangle;html=1;whiteSpace=wrap;connectable=0;strokeColor=inherit;overflow=hidden;fillColor=none;top=0;left=0;bottom=0;right=0;pointerEvents=1;" parent="fThtwUrrI2s_Vn2d46SL-115" vertex="1">
          <mxGeometry x="613" width="140" height="43" as="geometry">
            <mxRectangle width="140" height="43" as="alternateBounds" />
          </mxGeometry>
        </mxCell>
        <mxCell id="fThtwUrrI2s_Vn2d46SL-118" value="BNC" style="shape=partialRectangle;html=1;whiteSpace=wrap;connectable=0;strokeColor=inherit;overflow=hidden;fillColor=none;top=0;left=0;bottom=0;right=0;pointerEvents=1;" parent="fThtwUrrI2s_Vn2d46SL-115" vertex="1">
          <mxGeometry x="753" width="147" height="43" as="geometry">
            <mxRectangle width="147" height="43" as="alternateBounds" />
          </mxGeometry>
        </mxCell>
        <mxCell id="fThtwUrrI2s_Vn2d46SL-152" style="shape=tableRow;horizontal=0;startSize=0;swimlaneHead=0;swimlaneBody=0;strokeColor=inherit;top=0;left=0;bottom=0;right=0;collapsible=0;dropTarget=0;fillColor=none;points=[[0,0.5],[1,0.5]];portConstraint=eastwest;" parent="fThtwUrrI2s_Vn2d46SL-78" vertex="1">
          <mxGeometry y="440" width="900.0000000000005" height="43" as="geometry" />
        </mxCell>
        <mxCell id="fThtwUrrI2s_Vn2d46SL-153" value="&lt;div style=&quot;text-align: left;&quot;&gt;Picoammeter&lt;/div&gt;" style="shape=partialRectangle;html=1;whiteSpace=wrap;connectable=0;strokeColor=inherit;overflow=hidden;fillColor=none;top=0;left=0;bottom=0;right=0;pointerEvents=1;" parent="fThtwUrrI2s_Vn2d46SL-152" vertex="1">
          <mxGeometry width="323" height="43" as="geometry">
            <mxRectangle width="323" height="43" as="alternateBounds" />
          </mxGeometry>
        </mxCell>
        <mxCell id="fThtwUrrI2s_Vn2d46SL-166" value="Pickup for endcap electrode" style="shape=partialRectangle;html=1;whiteSpace=wrap;connectable=0;strokeColor=inherit;overflow=hidden;fillColor=none;top=0;left=0;bottom=0;right=0;pointerEvents=1;" parent="fThtwUrrI2s_Vn2d46SL-152" vertex="1">
          <mxGeometry x="323" width="290" height="43" as="geometry">
            <mxRectangle width="290" height="43" as="alternateBounds" />
          </mxGeometry>
        </mxCell>
        <mxCell id="fThtwUrrI2s_Vn2d46SL-154" value="BNC / USB-B / ethernet / GPIB" style="shape=partialRectangle;html=1;whiteSpace=wrap;connectable=0;strokeColor=inherit;overflow=hidden;fillColor=none;top=0;left=0;bottom=0;right=0;pointerEvents=1;" parent="fThtwUrrI2s_Vn2d46SL-152" vertex="1">
          <mxGeometry x="613" width="140" height="43" as="geometry">
            <mxRectangle width="140" height="43" as="alternateBounds" />
          </mxGeometry>
        </mxCell>
        <mxCell id="fThtwUrrI2s_Vn2d46SL-155" value="BNC (trigger)" style="shape=partialRectangle;html=1;whiteSpace=wrap;connectable=0;strokeColor=inherit;overflow=hidden;fillColor=none;top=0;left=0;bottom=0;right=0;pointerEvents=1;" parent="fThtwUrrI2s_Vn2d46SL-152" vertex="1">
          <mxGeometry x="753" width="147" height="43" as="geometry">
            <mxRectangle width="147" height="43" as="alternateBounds" />
          </mxGeometry>
        </mxCell>
        <mxCell id="fThtwUrrI2s_Vn2d46SL-123" style="shape=tableRow;horizontal=0;startSize=0;swimlaneHead=0;swimlaneBody=0;strokeColor=inherit;top=0;left=0;bottom=0;right=0;collapsible=0;dropTarget=0;fillColor=none;points=[[0,0.5],[1,0.5]];portConstraint=eastwest;" parent="fThtwUrrI2s_Vn2d46SL-78" vertex="1">
          <mxGeometry y="483" width="900.0000000000005" height="43" as="geometry" />
        </mxCell>
        <mxCell id="fThtwUrrI2s_Vn2d46SL-124" value="Rohde und Schwarz - FSH3 Spectrum analyzer" style="shape=partialRectangle;html=1;whiteSpace=wrap;connectable=0;strokeColor=inherit;overflow=hidden;fillColor=none;top=0;left=0;bottom=0;right=0;pointerEvents=1;" parent="fThtwUrrI2s_Vn2d46SL-123" vertex="1">
          <mxGeometry width="323" height="43" as="geometry">
            <mxRectangle width="323" height="43" as="alternateBounds" />
          </mxGeometry>
        </mxCell>
        <mxCell id="fThtwUrrI2s_Vn2d46SL-167" value="&lt;span style=&quot;text-align: left;&quot;&gt;Readout&lt;/span&gt;" style="shape=partialRectangle;html=1;whiteSpace=wrap;connectable=0;strokeColor=inherit;overflow=hidden;fillColor=none;top=0;left=0;bottom=0;right=0;pointerEvents=1;" parent="fThtwUrrI2s_Vn2d46SL-123" vertex="1">
          <mxGeometry x="323" width="290" height="43" as="geometry">
            <mxRectangle width="290" height="43" as="alternateBounds" />
          </mxGeometry>
        </mxCell>
        <mxCell id="fThtwUrrI2s_Vn2d46SL-125" value="USB-B / RS232" style="shape=partialRectangle;html=1;whiteSpace=wrap;connectable=0;strokeColor=inherit;overflow=hidden;fillColor=none;top=0;left=0;bottom=0;right=0;pointerEvents=1;" parent="fThtwUrrI2s_Vn2d46SL-123" vertex="1">
          <mxGeometry x="613" width="140" height="43" as="geometry">
            <mxRectangle width="140" height="43" as="alternateBounds" />
          </mxGeometry>
        </mxCell>
        <mxCell id="fThtwUrrI2s_Vn2d46SL-126" value="BNC" style="shape=partialRectangle;html=1;whiteSpace=wrap;connectable=0;strokeColor=inherit;overflow=hidden;fillColor=none;top=0;left=0;bottom=0;right=0;pointerEvents=1;" parent="fThtwUrrI2s_Vn2d46SL-123" vertex="1">
          <mxGeometry x="753" width="147" height="43" as="geometry">
            <mxRectangle width="147" height="43" as="alternateBounds" />
          </mxGeometry>
        </mxCell>
        <mxCell id="fThtwUrrI2s_Vn2d46SL-196" style="edgeStyle=orthogonalEdgeStyle;rounded=0;orthogonalLoop=1;jettySize=auto;html=1;entryX=0.5;entryY=0;entryDx=0;entryDy=0;" parent="WIyWlLk6GJQsqaUBKTNV-1" source="fThtwUrrI2s_Vn2d46SL-127" target="fThtwUrrI2s_Vn2d46SL-168" edge="1">
          <mxGeometry relative="1" as="geometry" />
        </mxCell>
        <mxCell id="fThtwUrrI2s_Vn2d46SL-127" value="Inject ions" style="shape=table;startSize=20;container=1;collapsible=0;childLayout=tableLayout;" parent="WIyWlLk6GJQsqaUBKTNV-1" vertex="1">
          <mxGeometry x="212.5" y="680" width="290" height="267" as="geometry" />
        </mxCell>
        <mxCell id="fThtwUrrI2s_Vn2d46SL-128" value="" style="shape=tableRow;horizontal=0;startSize=0;swimlaneHead=0;swimlaneBody=0;strokeColor=inherit;top=0;left=0;bottom=0;right=0;collapsible=0;dropTarget=0;fillColor=none;points=[[0,0.5],[1,0.5]];portConstraint=eastwest;" parent="fThtwUrrI2s_Vn2d46SL-127" vertex="1">
          <mxGeometry y="20" width="290" height="42" as="geometry" />
        </mxCell>
        <mxCell id="fThtwUrrI2s_Vn2d46SL-130" value="Berkeley Nucleonics Model 575" style="shape=partialRectangle;html=1;whiteSpace=wrap;connectable=0;strokeColor=inherit;overflow=hidden;fillColor=none;top=0;left=0;bottom=0;right=0;pointerEvents=1;" parent="fThtwUrrI2s_Vn2d46SL-128" vertex="1">
          <mxGeometry width="290" height="42" as="geometry">
            <mxRectangle width="290" height="42" as="alternateBounds" />
          </mxGeometry>
        </mxCell>
        <mxCell id="fThtwUrrI2s_Vn2d46SL-131" value="" style="shape=tableRow;horizontal=0;startSize=0;swimlaneHead=0;swimlaneBody=0;strokeColor=inherit;top=0;left=0;bottom=0;right=0;collapsible=0;dropTarget=0;fillColor=none;points=[[0,0.5],[1,0.5]];portConstraint=eastwest;" parent="fThtwUrrI2s_Vn2d46SL-127" vertex="1">
          <mxGeometry y="62" width="290" height="38" as="geometry" />
        </mxCell>
        <mxCell id="fThtwUrrI2s_Vn2d46SL-133" value="&lt;div&gt;Stahl HS 1000&lt;/div&gt;" style="shape=partialRectangle;html=1;whiteSpace=wrap;connectable=0;strokeColor=inherit;overflow=hidden;fillColor=none;top=0;left=0;bottom=0;right=0;pointerEvents=1;" parent="fThtwUrrI2s_Vn2d46SL-131" vertex="1">
          <mxGeometry width="290" height="38" as="geometry">
            <mxRectangle width="290" height="38" as="alternateBounds" />
          </mxGeometry>
        </mxCell>
        <mxCell id="fThtwUrrI2s_Vn2d46SL-134" value="" style="shape=tableRow;horizontal=0;startSize=0;swimlaneHead=0;swimlaneBody=0;strokeColor=inherit;top=0;left=0;bottom=0;right=0;collapsible=0;dropTarget=0;fillColor=none;points=[[0,0.5],[1,0.5]];portConstraint=eastwest;" parent="fThtwUrrI2s_Vn2d46SL-127" vertex="1">
          <mxGeometry y="100" width="290" height="42" as="geometry" />
        </mxCell>
        <mxCell id="fThtwUrrI2s_Vn2d46SL-136" value="&lt;div&gt;CAEN R8034&lt;/div&gt;" style="shape=partialRectangle;html=1;whiteSpace=wrap;connectable=0;strokeColor=inherit;overflow=hidden;fillColor=none;top=0;left=0;bottom=0;right=0;pointerEvents=1;" parent="fThtwUrrI2s_Vn2d46SL-134" vertex="1">
          <mxGeometry width="290" height="42" as="geometry">
            <mxRectangle width="290" height="42" as="alternateBounds" />
          </mxGeometry>
        </mxCell>
        <mxCell id="fThtwUrrI2s_Vn2d46SL-137" value="" style="shape=tableRow;horizontal=0;startSize=0;swimlaneHead=0;swimlaneBody=0;strokeColor=inherit;top=0;left=0;bottom=0;right=0;collapsible=0;dropTarget=0;fillColor=none;points=[[0,0.5],[1,0.5]];portConstraint=eastwest;" parent="fThtwUrrI2s_Vn2d46SL-127" vertex="1">
          <mxGeometry y="142" width="290" height="42" as="geometry" />
        </mxCell>
        <mxCell id="fThtwUrrI2s_Vn2d46SL-139" value="Stahl HV‐250‐8" style="shape=partialRectangle;html=1;whiteSpace=wrap;connectable=0;strokeColor=inherit;overflow=hidden;fillColor=none;top=0;left=0;bottom=0;right=0;pointerEvents=1;" parent="fThtwUrrI2s_Vn2d46SL-137" vertex="1">
          <mxGeometry width="290" height="42" as="geometry">
            <mxRectangle width="290" height="42" as="alternateBounds" />
          </mxGeometry>
        </mxCell>
        <mxCell id="fThtwUrrI2s_Vn2d46SL-140" value="" style="shape=tableRow;horizontal=0;startSize=0;swimlaneHead=0;swimlaneBody=0;strokeColor=inherit;top=0;left=0;bottom=0;right=0;collapsible=0;dropTarget=0;fillColor=none;points=[[0,0.5],[1,0.5]];portConstraint=eastwest;" parent="fThtwUrrI2s_Vn2d46SL-127" vertex="1">
          <mxGeometry y="184" width="290" height="41" as="geometry" />
        </mxCell>
        <mxCell id="fThtwUrrI2s_Vn2d46SL-142" value="&lt;div&gt;&lt;br&gt;&lt;/div&gt;&lt;div&gt;&lt;div&gt;Stahl BS-1-10 Cryo&lt;/div&gt;&lt;/div&gt;" style="shape=partialRectangle;html=1;whiteSpace=wrap;connectable=0;strokeColor=inherit;overflow=hidden;fillColor=none;top=0;left=0;bottom=0;right=0;pointerEvents=1;" parent="fThtwUrrI2s_Vn2d46SL-140" vertex="1">
          <mxGeometry width="290" height="41" as="geometry">
            <mxRectangle width="290" height="41" as="alternateBounds" />
          </mxGeometry>
        </mxCell>
        <mxCell id="fThtwUrrI2s_Vn2d46SL-143" value="" style="shape=tableRow;horizontal=0;startSize=0;swimlaneHead=0;swimlaneBody=0;strokeColor=inherit;top=0;left=0;bottom=0;right=0;collapsible=0;dropTarget=0;fillColor=none;points=[[0,0.5],[1,0.5]];portConstraint=eastwest;" parent="fThtwUrrI2s_Vn2d46SL-127" vertex="1">
          <mxGeometry y="225" width="290" height="42" as="geometry" />
        </mxCell>
        <mxCell id="fThtwUrrI2s_Vn2d46SL-145" value="Picoammeter" style="shape=partialRectangle;html=1;whiteSpace=wrap;connectable=0;strokeColor=inherit;overflow=hidden;fillColor=none;top=0;left=0;bottom=0;right=0;pointerEvents=1;" parent="fThtwUrrI2s_Vn2d46SL-143" vertex="1">
          <mxGeometry width="290" height="42" as="geometry">
            <mxRectangle width="290" height="42" as="alternateBounds" />
          </mxGeometry>
        </mxCell>
        <mxCell id="fThtwUrrI2s_Vn2d46SL-197" style="edgeStyle=orthogonalEdgeStyle;rounded=0;orthogonalLoop=1;jettySize=auto;html=1;entryX=0.5;entryY=0;entryDx=0;entryDy=0;" parent="WIyWlLk6GJQsqaUBKTNV-1" source="fThtwUrrI2s_Vn2d46SL-168" target="fThtwUrrI2s_Vn2d46SL-181" edge="1">
          <mxGeometry relative="1" as="geometry" />
        </mxCell>
        <mxCell id="fThtwUrrI2s_Vn2d46SL-168" value="Store ions" style="shape=table;startSize=20;container=1;collapsible=0;childLayout=tableLayout;" parent="WIyWlLk6GJQsqaUBKTNV-1" vertex="1">
          <mxGeometry x="212.5" y="1000" width="290" height="270" as="geometry" />
        </mxCell>
        <mxCell id="fThtwUrrI2s_Vn2d46SL-169" value="" style="shape=tableRow;horizontal=0;startSize=0;swimlaneHead=0;swimlaneBody=0;strokeColor=inherit;top=0;left=0;bottom=0;right=0;collapsible=0;dropTarget=0;fillColor=none;points=[[0,0.5],[1,0.5]];portConstraint=eastwest;" parent="fThtwUrrI2s_Vn2d46SL-168" vertex="1">
          <mxGeometry y="20" width="290" height="42" as="geometry" />
        </mxCell>
        <mxCell id="fThtwUrrI2s_Vn2d46SL-170" value="&lt;div&gt;Stahl HV‐250‐8&lt;/div&gt;" style="shape=partialRectangle;html=1;whiteSpace=wrap;connectable=0;strokeColor=inherit;overflow=hidden;fillColor=none;top=0;left=0;bottom=0;right=0;pointerEvents=1;" parent="fThtwUrrI2s_Vn2d46SL-169" vertex="1">
          <mxGeometry width="290" height="42" as="geometry">
            <mxRectangle width="290" height="42" as="alternateBounds" />
          </mxGeometry>
        </mxCell>
        <mxCell id="fThtwUrrI2s_Vn2d46SL-171" value="" style="shape=tableRow;horizontal=0;startSize=0;swimlaneHead=0;swimlaneBody=0;strokeColor=inherit;top=0;left=0;bottom=0;right=0;collapsible=0;dropTarget=0;fillColor=none;points=[[0,0.5],[1,0.5]];portConstraint=eastwest;" parent="fThtwUrrI2s_Vn2d46SL-168" vertex="1">
          <mxGeometry y="62" width="290" height="41" as="geometry" />
        </mxCell>
        <mxCell id="fThtwUrrI2s_Vn2d46SL-172" value="Stahl HV-200" style="shape=partialRectangle;html=1;whiteSpace=wrap;connectable=0;strokeColor=inherit;overflow=hidden;fillColor=none;top=0;left=0;bottom=0;right=0;pointerEvents=1;" parent="fThtwUrrI2s_Vn2d46SL-171" vertex="1">
          <mxGeometry width="290" height="41" as="geometry">
            <mxRectangle width="290" height="41" as="alternateBounds" />
          </mxGeometry>
        </mxCell>
        <mxCell id="fThtwUrrI2s_Vn2d46SL-173" value="" style="shape=tableRow;horizontal=0;startSize=0;swimlaneHead=0;swimlaneBody=0;strokeColor=inherit;top=0;left=0;bottom=0;right=0;collapsible=0;dropTarget=0;fillColor=none;points=[[0,0.5],[1,0.5]];portConstraint=eastwest;" parent="fThtwUrrI2s_Vn2d46SL-168" vertex="1">
          <mxGeometry y="103" width="290" height="42" as="geometry" />
        </mxCell>
        <mxCell id="fThtwUrrI2s_Vn2d46SL-174" value="&lt;div&gt;&lt;span style=&quot;background-color: transparent; color: light-dark(rgb(0, 0, 0), rgb(255, 255, 255));&quot;&gt;Stahl BS-1-10 Cryo&lt;/span&gt;&lt;/div&gt;" style="shape=partialRectangle;html=1;whiteSpace=wrap;connectable=0;strokeColor=inherit;overflow=hidden;fillColor=none;top=0;left=0;bottom=0;right=0;pointerEvents=1;" parent="fThtwUrrI2s_Vn2d46SL-173" vertex="1">
          <mxGeometry width="290" height="42" as="geometry">
            <mxRectangle width="290" height="42" as="alternateBounds" />
          </mxGeometry>
        </mxCell>
        <mxCell id="fThtwUrrI2s_Vn2d46SL-175" value="" style="shape=tableRow;horizontal=0;startSize=0;swimlaneHead=0;swimlaneBody=0;strokeColor=inherit;top=0;left=0;bottom=0;right=0;collapsible=0;dropTarget=0;fillColor=none;points=[[0,0.5],[1,0.5]];portConstraint=eastwest;" parent="fThtwUrrI2s_Vn2d46SL-168" vertex="1">
          <mxGeometry y="145" width="290" height="42" as="geometry" />
        </mxCell>
        <mxCell id="fThtwUrrI2s_Vn2d46SL-176" value="&lt;div&gt;&lt;span style=&quot;background-color: transparent; color: light-dark(rgb(0, 0, 0), rgb(255, 255, 255));&quot;&gt;Stahl BS 1-8 and BS 34-1&lt;/span&gt;&lt;/div&gt;" style="shape=partialRectangle;html=1;whiteSpace=wrap;connectable=0;strokeColor=inherit;overflow=hidden;fillColor=none;top=0;left=0;bottom=0;right=0;pointerEvents=1;" parent="fThtwUrrI2s_Vn2d46SL-175" vertex="1">
          <mxGeometry width="290" height="42" as="geometry">
            <mxRectangle width="290" height="42" as="alternateBounds" />
          </mxGeometry>
        </mxCell>
        <mxCell id="fThtwUrrI2s_Vn2d46SL-177" value="" style="shape=tableRow;horizontal=0;startSize=0;swimlaneHead=0;swimlaneBody=0;strokeColor=inherit;top=0;left=0;bottom=0;right=0;collapsible=0;dropTarget=0;fillColor=none;points=[[0,0.5],[1,0.5]];portConstraint=eastwest;" parent="fThtwUrrI2s_Vn2d46SL-168" vertex="1">
          <mxGeometry y="187" width="290" height="41" as="geometry" />
        </mxCell>
        <mxCell id="fThtwUrrI2s_Vn2d46SL-178" value="&lt;div&gt;UM&lt;/div&gt;" style="shape=partialRectangle;html=1;whiteSpace=wrap;connectable=0;strokeColor=inherit;overflow=hidden;fillColor=none;top=0;left=0;bottom=0;right=0;pointerEvents=1;" parent="fThtwUrrI2s_Vn2d46SL-177" vertex="1">
          <mxGeometry width="290" height="41" as="geometry">
            <mxRectangle width="290" height="41" as="alternateBounds" />
          </mxGeometry>
        </mxCell>
        <mxCell id="fThtwUrrI2s_Vn2d46SL-179" value="" style="shape=tableRow;horizontal=0;startSize=0;swimlaneHead=0;swimlaneBody=0;strokeColor=inherit;top=0;left=0;bottom=0;right=0;collapsible=0;dropTarget=0;fillColor=none;points=[[0,0.5],[1,0.5]];portConstraint=eastwest;" parent="fThtwUrrI2s_Vn2d46SL-168" vertex="1">
          <mxGeometry y="228" width="290" height="42" as="geometry" />
        </mxCell>
        <mxCell id="fThtwUrrI2s_Vn2d46SL-180" value="Rohde und Schwarz - FSH3 Spectrum analyzer" style="shape=partialRectangle;html=1;whiteSpace=wrap;connectable=0;strokeColor=inherit;overflow=hidden;fillColor=none;top=0;left=0;bottom=0;right=0;pointerEvents=1;" parent="fThtwUrrI2s_Vn2d46SL-179" vertex="1">
          <mxGeometry width="290" height="42" as="geometry">
            <mxRectangle width="290" height="42" as="alternateBounds" />
          </mxGeometry>
        </mxCell>
        <mxCell id="fThtwUrrI2s_Vn2d46SL-260" style="edgeStyle=orthogonalEdgeStyle;rounded=0;orthogonalLoop=1;jettySize=auto;html=1;entryX=0.5;entryY=0;entryDx=0;entryDy=0;" parent="WIyWlLk6GJQsqaUBKTNV-1" source="fThtwUrrI2s_Vn2d46SL-181" target="fThtwUrrI2s_Vn2d46SL-259" edge="1">
          <mxGeometry relative="1" as="geometry" />
        </mxCell>
        <mxCell id="fThtwUrrI2s_Vn2d46SL-181" value="Measurements and Readout" style="shape=table;startSize=20;container=1;collapsible=0;childLayout=tableLayout;" parent="WIyWlLk6GJQsqaUBKTNV-1" vertex="1">
          <mxGeometry x="212.5" y="1310" width="290" height="190" as="geometry" />
        </mxCell>
        <mxCell id="fThtwUrrI2s_Vn2d46SL-182" value="" style="shape=tableRow;horizontal=0;startSize=0;swimlaneHead=0;swimlaneBody=0;strokeColor=inherit;top=0;left=0;bottom=0;right=0;collapsible=0;dropTarget=0;fillColor=none;points=[[0,0.5],[1,0.5]];portConstraint=eastwest;" parent="fThtwUrrI2s_Vn2d46SL-181" vertex="1">
          <mxGeometry y="20" width="290" height="43" as="geometry" />
        </mxCell>
        <mxCell id="fThtwUrrI2s_Vn2d46SL-183" value="&lt;div&gt;Stahl HV-200&lt;/div&gt;" style="shape=partialRectangle;html=1;whiteSpace=wrap;connectable=0;strokeColor=inherit;overflow=hidden;fillColor=none;top=0;left=0;bottom=0;right=0;pointerEvents=1;" parent="fThtwUrrI2s_Vn2d46SL-182" vertex="1">
          <mxGeometry width="290" height="43" as="geometry">
            <mxRectangle width="290" height="43" as="alternateBounds" />
          </mxGeometry>
        </mxCell>
        <mxCell id="fThtwUrrI2s_Vn2d46SL-184" value="" style="shape=tableRow;horizontal=0;startSize=0;swimlaneHead=0;swimlaneBody=0;strokeColor=inherit;top=0;left=0;bottom=0;right=0;collapsible=0;dropTarget=0;fillColor=none;points=[[0,0.5],[1,0.5]];portConstraint=eastwest;" parent="fThtwUrrI2s_Vn2d46SL-181" vertex="1">
          <mxGeometry y="63" width="290" height="42" as="geometry" />
        </mxCell>
        <mxCell id="fThtwUrrI2s_Vn2d46SL-185" value="&lt;div&gt;Stahl BS 1-8 and BS 34-1&lt;/div&gt;" style="shape=partialRectangle;html=1;whiteSpace=wrap;connectable=0;strokeColor=inherit;overflow=hidden;fillColor=none;top=0;left=0;bottom=0;right=0;pointerEvents=1;" parent="fThtwUrrI2s_Vn2d46SL-184" vertex="1">
          <mxGeometry width="290" height="42" as="geometry">
            <mxRectangle width="290" height="42" as="alternateBounds" />
          </mxGeometry>
        </mxCell>
        <mxCell id="fThtwUrrI2s_Vn2d46SL-186" value="" style="shape=tableRow;horizontal=0;startSize=0;swimlaneHead=0;swimlaneBody=0;strokeColor=inherit;top=0;left=0;bottom=0;right=0;collapsible=0;dropTarget=0;fillColor=none;points=[[0,0.5],[1,0.5]];portConstraint=eastwest;" parent="fThtwUrrI2s_Vn2d46SL-181" vertex="1">
          <mxGeometry y="105" width="290" height="43" as="geometry" />
        </mxCell>
        <mxCell id="fThtwUrrI2s_Vn2d46SL-187" value="&lt;div&gt;UM&lt;/div&gt;" style="shape=partialRectangle;html=1;whiteSpace=wrap;connectable=0;strokeColor=inherit;overflow=hidden;fillColor=none;top=0;left=0;bottom=0;right=0;pointerEvents=1;" parent="fThtwUrrI2s_Vn2d46SL-186" vertex="1">
          <mxGeometry width="290" height="43" as="geometry">
            <mxRectangle width="290" height="43" as="alternateBounds" />
          </mxGeometry>
        </mxCell>
        <mxCell id="fThtwUrrI2s_Vn2d46SL-188" value="" style="shape=tableRow;horizontal=0;startSize=0;swimlaneHead=0;swimlaneBody=0;strokeColor=inherit;top=0;left=0;bottom=0;right=0;collapsible=0;dropTarget=0;fillColor=none;points=[[0,0.5],[1,0.5]];portConstraint=eastwest;" parent="fThtwUrrI2s_Vn2d46SL-181" vertex="1">
          <mxGeometry y="148" width="290" height="42" as="geometry" />
        </mxCell>
        <mxCell id="fThtwUrrI2s_Vn2d46SL-189" value="Rohde und Schwarz - FSH3 Spectrum analyzer" style="shape=partialRectangle;html=1;whiteSpace=wrap;connectable=0;strokeColor=inherit;overflow=hidden;fillColor=none;top=0;left=0;bottom=0;right=0;pointerEvents=1;" parent="fThtwUrrI2s_Vn2d46SL-188" vertex="1">
          <mxGeometry width="290" height="42" as="geometry">
            <mxRectangle width="290" height="42" as="alternateBounds" />
          </mxGeometry>
        </mxCell>
        <mxCell id="fThtwUrrI2s_Vn2d46SL-259" value="" style="ellipse;html=1;shape=endState;fillColor=#000000;strokeColor=#ff0000;" parent="WIyWlLk6GJQsqaUBKTNV-1" vertex="1">
          <mxGeometry x="342.5" y="1560" width="30" height="30" as="geometry" />
        </mxCell>
        <mxCell id="fThtwUrrI2s_Vn2d46SL-261" value="" style="ellipse;html=1;shape=startState;fillColor=#000000;strokeColor=#ff0000;" parent="WIyWlLk6GJQsqaUBKTNV-1" vertex="1">
          <mxGeometry x="342.5" y="20" width="30" height="30" as="geometry" />
        </mxCell>
        <mxCell id="fThtwUrrI2s_Vn2d46SL-262" value="" style="edgeStyle=orthogonalEdgeStyle;html=1;verticalAlign=bottom;endArrow=open;endSize=8;strokeColor=#ff0000;rounded=0;" parent="WIyWlLk6GJQsqaUBKTNV-1" source="fThtwUrrI2s_Vn2d46SL-261" edge="1">
          <mxGeometry relative="1" as="geometry">
            <mxPoint x="357.5" y="110" as="targetPoint" />
          </mxGeometry>
        </mxCell>
      </root>
    </mxGraphModel>
  </diagram>
</mxfile>
